<svg width="25" height="25" viewBox="0 0 25 25" fill="none" xmlns="http://www.w3.org/2000/svg">
<path d="M23.0469 22.0703C23.0469 22.6097 22.6097 23.0469 22.0703 23.0469H21.0938V24.0234C21.0938 24.5628 20.6565 25 20.1172 25C19.5778 25 19.1406 24.5628 19.1406 24.0234V23.0469H18.1641C17.6247 23.0469 17.1875 22.6097 17.1875 22.0703C17.1875 21.531 17.6247 21.0938 18.1641 21.0938H19.1406V20.1172C19.1406 19.5778 19.5778 19.1406 20.1172 19.1406C20.6565 19.1406 21.0938 19.5778 21.0938 20.1172V21.0938H22.0703C22.6097 21.0938 23.0469 21.531 23.0469 22.0703ZM23.0469 6.83594V16.2109C23.0469 16.7503 22.6097 17.1875 22.0703 17.1875C21.531 17.1875 21.0938 16.7503 21.0938 16.2109V7.8125H19.1406V10.7422C19.1406 11.2815 18.7034 11.7188 18.1641 11.7188C17.6247 11.7188 17.1875 11.2815 17.1875 10.7422V7.8125H7.8125V10.7422C7.8125 11.2815 7.37529 11.7188 6.83594 11.7188C6.29658 11.7188 5.85938 11.2815 5.85938 10.7422V7.8125H3.90625V23.0469H14.2578C14.7972 23.0469 15.2344 23.4841 15.2344 24.0234C15.2344 24.5628 14.7972 25 14.2578 25H2.92969C2.39033 25 1.95312 24.5628 1.95312 24.0234V6.83594C1.95312 6.29658 2.39033 5.85938 2.92969 5.85938H5.90557C6.29351 2.5646 9.10269 0 12.5 0C15.8973 0 18.7065 2.5646 19.0944 5.85938H22.0703C22.6097 5.85938 23.0469 6.29658 23.0469 6.83594ZM17.122 5.85938C16.749 3.64526 14.8185 1.95312 12.5 1.95312C10.1815 1.95312 8.25103 3.64526 7.87798 5.85938H17.122Z" fill="#757575"/>
<circle cx="19.5" cy="21.5" r="3.5" fill="#D80000"/>
</svg>
