<svg width="100" height="100" viewBox="0 0 100 100" fill="none" xmlns="http://www.w3.org/2000/svg">
<g clip-path="url(#clip0)">
<path d="M94.6928 30.8543H77.7348C74.8084 30.8543 72.4275 33.2363 72.4275 36.1645V55.6828H66.0846C66.4371 54.4014 66.5678 52.8898 66.482 51.1309V51.1307C66.3443 43.6973 64.9955 37.4324 62.4727 32.5102C60.5137 28.6885 58.2275 26.3973 56.2658 25.0275C58.5684 22.6602 59.8996 19.2924 59.8996 15.4082C59.8996 8.41973 54.3248 2.73438 47.4727 2.73438C40.6205 2.73438 35.0457 8.41973 35.0457 15.4082C35.0457 16.2174 35.7016 16.873 36.5106 16.873H37.5059C37.4143 17.4258 37.3654 17.9891 37.3654 18.5611C37.3654 23.4861 40.8846 27.6023 45.5373 28.5248C45.0496 30.3357 44.8072 32.4711 44.8082 34.8969L41.1547 38.0393L32.265 38.7582L22.0105 35.3684C21.0707 35.0559 20.0055 34.7027 19.0813 35.3691C18.1705 36.0264 18.1705 37.177 18.1705 37.5549V45.1789C18.1705 45.9881 18.8264 46.6437 19.6354 46.6437H21.3793L18.7045 55.8867C18.4797 56.6637 18.9273 57.4762 19.7045 57.701C20.482 57.9269 21.2939 57.4781 21.5189 56.7012L24.4295 46.6437H28.5939C23.4143 62.4391 26.3697 72.9824 30.9125 83.6525H28.2793L17.3119 71.3896L19.6311 63.3779C19.8561 62.6008 19.4084 61.7885 18.6313 61.5637C17.8541 61.3389 17.0418 61.7865 16.8168 62.5635L14.5986 70.227C7.73809 70.1125 1.60137 74.8426 0.0375022 81.6479C-0.143553 82.4361 0.34844 83.2221 1.13653 83.4033L3.21602 83.8818C2.68477 89.3998 6.31856 94.6059 11.8604 95.8814C12.702 96.0754 13.5508 96.1711 14.3938 96.1711C16.4727 96.1711 18.515 95.5883 20.3215 94.4561C22.4416 93.1275 24.0213 91.1744 24.8762 88.8662L26.517 89.2438C27.0059 89.3568 27.4695 89.4141 27.9328 89.1646C28.3639 88.9326 28.6504 88.5137 28.7578 88.0408C28.8609 87.5613 28.9395 87.074 28.9939 86.5822H59.6303C60.61 92.6734 65.7926 97.265 71.9822 97.265C78.1719 97.265 83.3547 92.6734 84.3344 86.5822H85.4523C85.4523 86.5822 85.6742 86.5848 85.7248 86.5848C86.1438 86.5848 86.7488 86.5383 87.2457 86.0328C87.4943 85.7799 87.7861 85.3273 87.7637 84.6084C87.7225 83.2328 87.516 81.9037 87.1637 80.6404C88.3305 73.5568 87.2078 69.2426 85.5436 65.8662C86.5957 65.1766 87.2934 63.9883 87.2934 62.6383V58.6123H94.6924C97.6188 58.6123 99.9996 56.2303 99.9996 53.3022V36.1643C100 33.2363 97.6193 30.8543 94.6928 30.8543ZM18.7658 91.974C16.8906 93.1492 14.6719 93.5229 12.518 93.027H12.5178C8.55332 92.1145 5.9084 88.4791 6.10117 84.5482L21.9904 88.2053C21.333 89.7531 20.2207 91.0623 18.7658 91.974ZM26.0955 86.1408L3.30938 80.8975C5.06778 76.0822 9.79981 72.8947 14.9723 73.1689L26.1346 85.6496C26.1248 85.8143 26.1119 85.9779 26.0955 86.1408ZM48.2215 60.6145C47.7963 61.7359 47.7963 63.1186 47.7963 65.0324V70.5602H42.4324V62.9766C42.4324 54.4027 47.1117 52.8748 49.2117 52.6227H63.5729C63.515 54.5686 63.076 55.9518 62.2424 56.8297C61.2709 57.8527 59.6086 58.3512 57.1602 58.3535L51.9022 58.359C50.0271 58.3592 48.7889 59.1178 48.2215 60.6145ZM47.7963 73.4896V76.9873C47.783 76.9873 47.7693 76.9873 47.7553 76.9873H37.3504C37.4674 75.9025 37.8053 75.0631 38.3602 74.4822C39.1856 73.6186 40.348 73.4896 40.9676 73.4896H47.7963ZM63.5082 49.6932H50.1865C49.6516 48.0098 49.1746 46.1664 48.7824 44.2719L52.8326 41.643C55.0436 40.2072 56.1938 38.1785 55.9883 36.0768C55.8063 34.2137 54.5396 32.5494 52.7615 31.8371C51.1377 31.1867 49.3898 31.391 47.8451 32.3787C47.9725 30.9775 48.2096 29.7268 48.5525 28.665C49.177 28.6006 49.7971 28.4785 50.4061 28.2994C51.6457 28.0115 52.7912 27.5527 53.8254 26.9443C56.6467 28.6299 62.8518 34.0971 63.5082 49.6932ZM38.0826 13.9436C38.7734 9.26309 42.7211 5.66426 47.4727 5.66426C52.7094 5.66426 56.9699 10.0355 56.9699 15.4084C56.9699 19.7783 54.8744 23.3004 51.4955 24.8504V17.1428C51.4955 15.8082 50.9848 14.1711 48.5523 13.9496C48.5082 13.9455 48.4639 13.9436 48.4195 13.9436H38.0826ZM40.2953 18.5613C40.2953 17.9832 40.3611 17.4186 40.4906 16.8732H48.3477C48.4381 16.883 48.5041 16.8936 48.5514 16.9031C48.559 16.9574 48.5656 17.0355 48.5656 17.1428V25.7123C48.2166 25.7637 47.8654 25.7896 47.5145 25.7898C47.5111 25.7898 47.5078 25.7898 47.5047 25.7898C43.5289 25.7861 40.2953 22.5449 40.2953 18.5613ZM38.3963 41.202L41.8658 40.9213C42.175 40.8965 42.4682 40.774 42.7035 40.5719L48.9652 35.1861L48.9662 35.1852C49.5717 34.6635 50.218 34.3959 50.8473 34.3959C51.1273 34.3959 51.4041 34.449 51.6723 34.5564C52.4463 34.8664 52.9959 35.575 53.0729 36.3613C53.1695 37.351 52.5176 38.3541 51.2377 39.1854L44.2602 43.7143H38.3967V41.202H38.3963ZM32.2057 41.7027L35.4666 41.4391V43.7146H31.6773C31.1861 43.7146 31.0664 43.3064 31.0523 42.9641C31.0443 42.7699 31.0627 41.7965 32.2057 41.7027ZM28.7387 40.6914C28.2975 41.4148 28.0914 42.2611 28.1252 43.084C28.134 43.2971 28.1611 43.5023 28.199 43.7023C28.199 43.7064 28.1967 43.7105 28.1975 43.7145H21.1006V38.1533L28.7443 40.6801C28.742 40.684 28.7408 40.6877 28.7387 40.6914ZM31.6855 46.6441H44.6936C44.9766 46.6441 45.2537 46.5621 45.491 46.408L46.1541 45.9775C46.473 47.3873 46.8363 48.7592 47.232 50.0549C44.2445 50.9367 39.5025 53.7865 39.5025 62.9764V70.707C38.4748 70.9145 37.259 71.3937 36.242 72.458C35.1699 73.5799 34.5576 75.1 34.4107 76.9871H31.4557C28.4779 68.4055 27.3455 59.2734 31.6855 46.6441ZM34.1 83.6477C33.5586 82.4025 33.0367 81.1621 32.5453 79.917H47.7551C49.7264 79.917 50.7258 79.0195 50.7258 77.2498V72.0248V66.4971H62.2881C63.0973 66.4971 63.7529 65.8414 63.7529 65.0322C63.7529 64.223 63.0973 63.5674 62.2881 63.5674H50.7363C50.7551 62.7354 50.8084 62.0549 50.9609 61.6529C51.035 61.4574 51.099 61.2887 51.9035 61.2887L57.1629 61.2832C60.4568 61.2801 62.8133 60.4832 64.367 58.8469C64.4389 58.7711 64.5068 58.6916 64.575 58.6125H73.8926H84.3643V62.6385C84.3643 63.142 83.9398 63.5674 83.4375 63.5674H68.8545C68.0453 63.5674 67.3896 64.223 67.3896 65.0322C67.3896 65.8414 68.0453 66.4971 68.8545 66.4971H82.5768C83.7346 68.6461 84.776 71.3201 84.7141 75.5449C81.816 71.5193 77.1244 68.9309 71.7998 68.9309C67.5236 68.9309 63.5111 70.6082 60.5012 73.6541C57.8303 76.3566 56.2262 79.8643 55.8961 83.6525L34.1 83.6477ZM71.9824 94.3357C67.4031 94.3357 63.541 91.0363 62.6066 86.5826H81.3582C80.4236 91.0359 76.5615 94.3357 71.9824 94.3357ZM83.0223 83.6529H60.943H58.8385C59.5576 77.0293 65.0959 71.8605 71.7998 71.8605C77.6855 71.8605 82.6283 75.7416 84.2652 81.1746C84.2705 81.1918 84.2758 81.209 84.2816 81.226C84.5131 82.0055 84.6766 82.8168 84.765 83.6529H83.0223ZM97.0703 53.3023C97.0703 54.615 96.0037 55.6828 94.6928 55.6828H75.3572V48.1182H97.0703V53.3023ZM97.0703 45.1885H75.3572V42.073H97.0703V45.1885ZM97.0703 39.1434H75.3572V36.1645C75.3572 34.8518 76.4238 33.784 77.7348 33.784H94.6928C96.0037 33.784 97.0703 34.852 97.0703 36.1645V39.1434Z" fill="#F8F8F8"/>
</g>
<defs>
<clipPath id="clip0">
<rect width="100" height="100" fill="white"/>
</clipPath>
</defs>
</svg>
