<svg width="100" height="100" viewBox="0 0 100 100" fill="none" xmlns="http://www.w3.org/2000/svg">
<path d="M45.3126 70.2344V51.5625C45.3126 51.1481 45.148 50.7507 44.8549 50.4576C44.5619 50.1646 44.1645 50 43.7501 50C34.2071 50 32.8692 66.3736 32.8169 67.0703C32.7937 67.3795 32.863 67.6887 33.016 67.9583C33.1691 68.228 33.3989 68.4461 33.6763 68.5848L35.9376 69.7156V70.2352L34.7266 82.3461C34.6615 82.9977 34.7336 83.6558 34.9383 84.2779C35.143 84.8999 35.4758 85.4722 35.9153 85.9578C36.3547 86.4434 36.891 86.8315 37.4896 87.0971C38.0882 87.3627 38.7358 87.5 39.3907 87.5H41.8595C42.5143 87.5 43.162 87.3627 43.7606 87.0971C44.3592 86.8315 44.8955 86.4434 45.3349 85.9578C45.7743 85.4722 46.1071 84.8999 46.3118 84.2779C46.5166 83.6558 46.5887 82.9977 46.5235 82.3461L45.3126 70.2344ZM36.0448 66.2754C36.3156 64.0844 36.7974 61.9247 37.4833 59.8264C38.6841 56.293 40.2618 54.1428 42.1876 53.4098V68.75H39.0626C39.0626 68.4598 38.9818 68.1754 38.8292 67.9286C38.6767 67.6818 38.4584 67.4823 38.1989 67.3525L36.0448 66.2754ZM43.0175 83.8609C42.8717 84.0236 42.6932 84.1535 42.4936 84.2421C42.294 84.3307 42.0778 84.376 41.8595 84.375H39.3907C39.1723 84.375 38.9564 84.3293 38.7567 84.2407C38.5571 84.1521 38.3783 84.0227 38.2318 83.8607C38.0853 83.6988 37.9743 83.5079 37.9061 83.3005C37.8379 83.093 37.814 82.8735 37.8358 82.6563L38.9141 71.875H42.336L43.4143 82.6563C43.4373 82.8737 43.4139 83.0935 43.3455 83.3011C43.2772 83.5088 43.1656 83.6996 43.0181 83.8609H43.0175Z" fill="#F0F0F0"/>
<path d="M95.3125 1.5625H82.8125C82.3981 1.5625 82.0007 1.72712 81.7076 2.02015C81.4146 2.31317 81.25 2.7106 81.25 3.125V4.6875H48.6293C47.2167 4.68849 45.8269 5.04287 44.5863 5.71836L29.2889 14.0625H10.9375C8.30898 14.0625 6.25 16.8078 6.25 20.3125C6.25 23.5836 8.04395 26.1914 10.4201 26.5256L3.37559 50.3732C3.36934 50.3945 3.36348 50.416 3.35801 50.4373C3.20333 51.0569 3.12508 51.6932 3.125 52.3318V96.875C3.125 97.2894 3.28962 97.6868 3.58265 97.9799C3.87567 98.2729 4.2731 98.4375 4.6875 98.4375H75C75.4144 98.4375 75.8118 98.2729 76.1049 97.9799C76.3979 97.6868 76.5625 97.2894 76.5625 96.875V52.4625C76.5626 51.7163 76.4557 50.9739 76.2449 50.258L69.7348 28.1236C71.8549 28.1081 73.8917 27.2965 75.4415 25.8497C76.9912 24.4029 77.9408 22.4265 78.1018 20.3125H81.25V23.4375C81.25 23.8519 81.4146 24.2493 81.7076 24.5424C82.0007 24.8354 82.3981 25 82.8125 25H95.3125C95.7269 25 96.1243 24.8354 96.4174 24.5424C96.7104 24.2493 96.875 23.8519 96.875 23.4375V3.125C96.875 2.7106 96.7104 2.31317 96.4174 2.02015C96.1243 1.72712 95.7269 1.5625 95.3125 1.5625ZM9.375 20.3125C9.375 18.4049 10.3004 17.1875 10.9375 17.1875H55.6029L49.3529 23.4375H10.9375C10.3004 23.4375 9.375 22.2201 9.375 20.3125ZM58.0455 50.4375C57.8908 51.0571 57.8126 51.6934 57.8125 52.332V95.3125H6.25V52.3318C6.25015 51.9589 6.29467 51.5872 6.38262 51.2248L13.6676 26.5625H46.526C45.7103 27.9406 45.4006 29.56 45.6503 31.1418C45.8999 32.7236 46.6932 34.1689 47.8937 35.2289C49.0941 36.2888 50.6265 36.8971 52.2271 36.9489C53.8276 37.0007 55.3962 36.4929 56.6627 35.5129L64.1797 29.6658L58.0631 50.3734C58.0568 50.3947 58.051 50.4162 58.0455 50.4375ZM67.1875 91.2723L71.2277 95.3125H63.1473L67.1875 91.2723ZM73.2471 51.1404C73.3735 51.5697 73.4376 52.015 73.4375 52.4625V93.1027L68.75 88.4152V54.6875C68.75 54.2731 68.5854 53.8757 68.2924 53.5826C67.9993 53.2896 67.6019 53.125 67.1875 53.125C66.7731 53.125 66.3757 53.2896 66.0826 53.5826C65.7896 53.8757 65.625 54.2731 65.625 54.6875V88.4154L60.9375 93.1029V52.3318C60.9376 51.9589 60.9822 51.5872 61.0701 51.2248L67.1834 30.5264L73.2471 51.1404ZM81.25 17.1875H77.4947C76.8333 17.1883 76.1992 17.4514 75.7315 17.919C75.2639 18.3867 75.0008 19.0208 75 19.6822C74.9984 21.0921 74.4376 22.4438 73.4407 23.4407C72.4438 24.4376 71.0921 24.9984 69.6822 25H65.8412C65.3538 25.0008 64.8804 25.1633 64.4951 25.4619L54.7437 33.0469C53.9896 33.634 53.0398 33.9115 52.0882 33.8228C51.1365 33.734 50.2545 33.2856 49.6219 32.5691C48.9893 31.8526 48.6538 30.9218 48.6837 29.9664C48.7136 29.0111 49.1067 28.1031 49.7828 27.4275L60.4797 16.7305C60.6984 16.512 60.8474 16.2335 60.9078 15.9304C60.9682 15.6272 60.9374 15.3129 60.8191 15.0273C60.7008 14.7416 60.5005 14.4975 60.2434 14.3258C59.9864 14.154 59.6841 14.0624 59.375 14.0625H35.8152L46.083 8.46172C46.8643 8.03628 47.7397 7.8131 48.6293 7.8125H81.25V17.1875ZM93.75 21.875H84.375V4.6875H93.75V21.875Z" fill="#F0F0F0"/>
<path d="M31.25 51.5625C31.25 51.1481 31.0854 50.7507 30.7924 50.4576C30.4993 50.1646 30.1019 50 29.6875 50C29.2731 50 28.8757 50.1646 28.5826 50.4576C28.2896 50.7507 28.125 51.1481 28.125 51.5625V56.25H25V51.5625C25 51.1481 24.8354 50.7507 24.5424 50.4576C24.2493 50.1646 23.8519 50 23.4375 50C23.0231 50 22.6257 50.1646 22.3326 50.4576C22.0396 50.7507 21.875 51.1481 21.875 51.5625V56.25H18.75V51.5625C18.75 51.1481 18.5854 50.7507 18.2924 50.4576C17.9993 50.1646 17.6019 50 17.1875 50C16.7731 50 16.3757 50.1646 16.0826 50.4576C15.7896 50.7507 15.625 51.1481 15.625 51.5625V57.8125H15.6279C15.6268 58.0549 15.6824 58.2942 15.79 58.5113L18.7234 64.3783L17.4307 82.4785C17.3848 83.1206 17.4717 83.7652 17.6859 84.3723C17.9001 84.9793 18.237 85.5357 18.6756 86.0068C19.1143 86.4779 19.6453 86.8536 20.2355 87.1105C20.8257 87.3674 21.4625 87.5 22.1062 87.5H24.7688C25.4125 87.5 26.0493 87.3674 26.6395 87.1105C27.2297 86.8536 27.7607 86.4779 28.1994 86.0068C28.638 85.5357 28.9749 84.9793 29.1891 84.3723C29.4033 83.7652 29.4902 83.1206 29.4443 82.4785L28.1516 64.3783L31.085 58.5113C31.1926 58.2942 31.2482 58.0549 31.2471 57.8125H31.25V51.5625ZM27.1594 59.375L25.5969 62.5H21.2781L19.7156 59.375H27.1594ZM25.9125 83.8771C25.7669 84.035 25.59 84.1608 25.393 84.2465C25.1961 84.3322 24.9835 84.376 24.7688 84.375H22.1062C21.8917 84.375 21.6794 84.3308 21.4827 84.2452C21.286 84.1596 21.109 84.0344 20.9627 83.8774C20.8165 83.7203 20.7042 83.5349 20.6328 83.3326C20.5614 83.1302 20.5324 82.9154 20.5477 82.7014L21.7674 65.625H25.1072L26.327 82.7014C26.3432 82.9154 26.3148 83.1304 26.2434 83.3329C26.1721 83.5353 26.0594 83.7206 25.9125 83.8771Z" fill="#F0F0F0"/>
</svg>
